<svg data-wf-icon="ConditionalRuleIcon" width="16" height="16" viewBox="0 0 16 16" fill="none" xmlns="http://www.w3.org/2000/svg"><path fill-rule="evenodd" clip-rule="evenodd" d="M7.50004 7V2H8.50004V7H11.5C12.3285 7 13 7.67157 13 8.5V12.2929L14.6465 10.6464L15.3536 11.3536L12.8536 13.8536L12.5 14.2071L12.1465 13.8536L9.64648 11.3536L10.3536 10.6464L12 12.2929V8.5C12 8.22386 11.7762 8 11.5 8H8.00004H4.50004C4.2239 8 4.00004 8.22386 4.00004 8.5V12.2929L5.64648 10.6464L6.35359 11.3536L3.85359 13.8536L3.50004 14.2071L3.14648 13.8536L0.646484 11.3536L1.35359 10.6464L3.00004 12.2929V8.5C3.00004 7.67157 3.67161 7 4.50004 7H7.50004Z" fill="#f5f5f5"></path></svg>