<svg data-wf-icon="CustomizeIcon" width="16" height="16" viewBox="0 0 16 16" fill="none" xmlns="http://www.w3.org/2000/svg"><path fill-rule="evenodd" clip-rule="evenodd" d="M7 3.29289C7.18754 3.10536 7.44189 3 7.70711 3H10.5C10.7022 3 10.8845 3.12182 10.9619 3.30866C11.0393 3.4955 10.9966 3.71055 10.8536 3.85355L9 5.70711V7H10.2929L12.1464 5.14645C12.2894 5.00345 12.5045 4.96067 12.6913 5.03806C12.8782 5.11545 13 5.29777 13 5.5V8.29289C13 8.55811 12.8946 8.81246 12.7071 9L11 10.7071C10.8125 10.8946 10.5581 11 10.2929 11H7.70711L4.85355 13.8536C4.65829 14.0488 4.34171 14.0488 4.14645 13.8536L2.14645 11.8536C1.95118 11.6583 1.95118 11.3417 2.14645 11.1464L5 8.29289V5.70711C5 5.44189 5.10536 5.18754 5.29289 5L7 3.29289ZM9.29289 4H7.70711L6 5.70711L6 8.29289C6 8.55811 5.89464 8.81246 5.70711 9L3.20711 11.5L4.5 12.7929L7 10.2929C7.18754 10.1054 7.44189 10 7.70711 10H10.2929L12 8.29289V6.70711L10.8536 7.85355C10.7598 7.94732 10.6326 8 10.5 8H8.5C8.22386 8 8 7.77614 8 7.5V5.5C8 5.36739 8.05268 5.24021 8.14645 5.14645L9.29289 4Z" fill="rgb(255, 211, 1)"></path></svg>