<!-- icon666.com - MILLIONS vector ICONS FREE --><svg viewBox="0 0 307.388 307.388" xmlns="http://www.w3.org/2000/svg"><path d="m30.101562 0c-16.621093.0117188-30.0898432 13.480469-30.101562 30.101562v247.199219c.0195312 16.609375 13.480469 30.066407 30.089844 30.085938h247.210937c16.605469-.019531 30.066407-13.480469 30.085938-30.085938v-247.199219c-.015625-16.613281-13.472657-30.0781245-30.085938-30.101562zm261.296876 30.101562v247.199219c0 7.785157-6.3125 14.097657-14.097657 14.097657h-247.199219c-7.789062 0-14.097656-6.3125-14.101562-14.097657v-247.199219c.003906-7.789062 6.3125-14.097656 14.101562-14.101562h247.199219c7.785157.003906 14.097657 6.3125 14.097657 14.101562zm0 0" fill="#000000" style="fill: rgb(245, 245, 245);"></path><path d="m119.875 69.894531h-40.398438c-11.921874.023438-21.578124 9.679688-21.601562 21.601563v124.398437c.023438 11.921875 9.679688 21.578125 21.601562 21.601563h40.398438c11.921875-.023438 21.578125-9.679688 21.601562-21.601563v-124.398437c-.023437-11.921875-9.679687-21.578125-21.601562-21.601563zm5.601562 146c-.011718 3.089844-2.511718 5.589844-5.601562 5.601563h-40.398438c-3.089843-.011719-5.589843-2.511719-5.601562-5.601563v-124.398437c.011719-3.089844 2.511719-5.589844 5.601562-5.601563h40.398438c3.089844.011719 5.589844 2.511719 5.601562 5.601563zm0 0" fill="#000000" style="fill: rgb(245, 245, 245);"></path><path d="m227.90625 69.894531h-40.398438c-11.921874.019531-21.578124 9.679688-21.601562 21.601563v124.398437c.023438 11.921875 9.679688 21.582031 21.601562 21.601563h40.398438c11.921875-.019532 21.582031-9.679688 21.601562-21.601563v-124.398437c-.019531-11.921875-9.679687-21.582032-21.601562-21.601563zm5.601562 146c-.011718 3.089844-2.511718 5.589844-5.601562 5.601563h-40.398438c-3.089843-.011719-5.589843-2.511719-5.601562-5.601563v-124.398437c.011719-3.089844 2.511719-5.589844 5.601562-5.601563h40.398438c3.089844.011719 5.589844 2.511719 5.601562 5.601563zm0 0" fill="#000000" style="fill: rgb(245, 245, 245);"></path></svg>