<svg data-wf-icon="TriggerDefaultIcon" width="16" height="16" viewBox="0 0 16 16" fill="none" xmlns="http://www.w3.org/2000/svg"><path fill-rule="evenodd" clip-rule="evenodd" d="M10.8284 3.17157C12.3905 4.73365 12.3905 7.26626 10.8285 8.82837L11.5356 9.53547C13.4882 7.58285 13.4881 4.41707 11.5355 2.46447C9.58291 0.511845 6.41709 0.511845 4.46447 2.46447C2.51184 4.41709 2.51184 7.58291 4.46447 9.53553L4.48552 9.55647L4.46458 9.53552L5.17162 8.82848L5.17157 8.82843C3.60948 7.26633 3.60948 4.73367 5.17157 3.17157C6.73367 1.60948 9.26633 1.60948 10.8284 3.17157ZM7.5 6V12.7929L5.85355 11.1464L5.14645 11.8536L7.64645 14.3536L8 14.7071L8.35355 14.3536L10.8536 11.8536L10.1464 11.1464L8.5 12.7929V6H7.5Z" fill="#f5f5f5"></path></svg>